OpenSim_Sub01_CSBaseline_LCS.mot
version=1
nRows=64
nColumns=11
inDegrees=no
endheader
time	Bot_Shank	2nd_Bot_Shank	2nd_Top_Shank	Top_Shank	Bot_Thigh	Med_Thigh	Top_Thigh	BNOx	BNOy	BNOZ
29.75000000	9151.61511576	9601.97486665	10395.69603074	10376.92145673	13025.96868580	14144.83434181	14936.98852154	205.47443199	-50.78314446	117.26722498
29.76000000	9151.53043043	9608.26804204	10396.50118502	10380.76997474	13015.66542979	14142.30726807	14937.39376081	208.72216146	-48.91738733	116.91534751
29.77000000	9151.48999585	9614.92957398	10397.34947443	10384.91560878	13003.96863004	14138.76415893	14937.66022055	211.77890550	-47.26041145	117.89788271
29.78000000	9151.51044905	9621.30693365	10398.18864843	10389.06551790	12990.96462726	14134.76067388	14937.76130147	214.56184338	-45.83068153	119.76775084
29.79000000	9151.60842703	9626.74759223	10398.96645646	10392.92686120	12976.73976219	14130.85247243	14937.67040428	216.98815433	-44.64666230	122.07787212
29.80000000	9151.80056679	9630.59902090	10399.63064796	10396.20679775	12961.38037554	14127.59521406	14937.36092969	218.97501760	-43.72681847	124.38116679
29.81000000	9152.10308002	9632.21406071	10400.12929922	10398.61463872	12944.97735058	14125.53982133	14936.80683715	220.44036039	-43.08939709	126.23313172
29.82000000	9152.49927155	9631.36102042	10400.43577480	10400.02620390	12927.97302905	14124.87071740	14936.02531649	221.35997979	-42.73580528	127.38862073
29.83000000	9152.91666673	9628.51245545	10400.56630460	10400.59955677	12911.40549920	14125.15108356	14935.10683603	221.80776637	-42.63890526	127.94041136
29.84000000	9153.27738785	9624.20913829	10400.54127067	10400.52010040	12896.37055643	14125.88392431	14934.14896225	221.86711254	-42.76879421	128.01401428
29.85000000	9153.50355718	9618.99184141	10400.38105508	10399.97323789	12883.96399616	14126.57224415	14933.24926159	221.62141072	-43.09556937	127.73494016
29.86000000	9153.51729702	9613.40133729	10400.10603990	10399.14437231	12875.28161378	14126.71904758	14932.50530053	221.15405332	-43.58932792	127.22869963
29.87000000	9153.24072963	9607.97839841	10399.73660718	10398.21890675	12871.41920471	14125.82733910	14932.01464552	220.54843277	-44.22016707	126.62080336
29.88000000	9152.59597730	9603.26379725	10399.29313900	10397.38224430	12873.47256435	14123.40012321	14931.87486303	219.88794148	-44.95818403	126.03676202
29.89000000	9151.50899778	9599.79061468	10398.79609144	10396.81716134	12882.50757181	14118.96145114	14932.18538603	219.25489530	-45.77361387	125.60043576
29.90000000	9150.05485290	9597.79292099	10398.26879883	10396.60432154	12898.42711039	14112.85356504	14933.11820782	218.68975852	-46.64205071	125.37152236
29.91000000	9148.50229595	9597.11636105	10397.73833435	10396.69174052	12919.62329068	14106.48156610	14934.93958013	218.17862877	-47.54605033	125.32637033
29.92000000	9147.13302493	9597.58062064	10397.23202109	10397.01856882	12944.38725577	14101.32158812	14937.92205413	217.70397026	-48.46863375	125.43575783
29.93000000	9146.22873786	9599.00538554	10396.77718212	10397.52395697	12971.01014878	14098.84976493	14942.33818103	217.24824721	-49.39282199	125.67046299
29.94000000	9146.07113275	9601.21034151	10396.40114051	10398.14705551	12997.78311281	14100.54223035	14948.46051199	216.79392382	-50.30163607	126.00126396
29.95000000	9146.94190763	9604.01517432	10396.13121934	10398.82701497	13022.99729096	14107.87511820	14956.56159820	216.32346433	-51.17809704	126.39893889
29.96000000	9149.12276049	9607.23956974	10395.99474169	10399.50298587	13044.94382633	14122.32456229	14966.91399085	215.81933293	-52.00522590	126.83426593
29.97000000	9152.89464070	9610.70365372	10396.01894691	10400.11420695	13061.91780901	14145.36141624	14979.78905489	215.26403508	-52.76607942	127.27806988
29.98000000	9158.37978172	9614.32086947	10396.21332692	10400.61861206	13073.05108845	14177.33712734	14995.20667464	214.64881680	-53.45129238	127.71106547
29.99000000	9165.34630093	9618.21286331	10396.54777671	10401.01584643	13079.34243475	14216.10559956	15012.62564789	213.98442554	-54.06840698	128.13603323
30	9173.51440147	9622.52945281	10396.98683357	10401.31119911	13082.04322462	14259.18280288	15031.42885377	213.28424738	-54.62725318	128.55873929
30.01000000	9182.60428650	9627.42045555	10397.49503477	10401.50995911	13082.40483477	14304.08470731	15050.99917140	212.56166845	-55.13766089	128.98494982
30.02000000	9192.33615914	9633.03568911	10398.03691760	10401.61741550	13081.67864191	14348.32728284	15070.71947989	211.83007483	-55.60946005	129.42043098
30.03000000	9202.43022255	9639.52497106	10398.57701934	10401.63885731	13081.11602273	14389.42649946	15089.97265836	211.10285264	-56.05248058	129.87094892
30.04000000	9212.60667986	9647.03811898	10399.07987725	10401.57957357	13081.96835396	14424.89832716	15108.14158593	210.39338797	-56.47655241	130.34226979
30.05000000	9222.58573424	9655.72495043	10399.51002863	10401.44485333	13085.48701230	14452.25873594	15124.60914171	209.71506694	-56.89150548	130.84015975
30.06000000	9232.08758881	9665.73528300	10399.83201075	10401.23998562	13092.92337445	14469.02369578	15138.75820483	209.08127563	-57.30716971	131.37038495
30.07000000	9240.83252152	9677.21884109	10400.01037410	10400.97026309	13105.52833825	14472.71011658	15149.97185006	208.50539604	-57.73337214	131.93870782
30.08000000	9248.64005143	9690.20170365	10400.02719630	10400.64574961	13123.91732680	14462.08215564	15157.89278407	207.99532717	-58.17610097	132.54592586
30.09000000	9255.62457918	9704.34255400	10399.91663449	10400.29068619	13146.81753658	14439.60999622	15162.93517449	207.54267622	-58.62993782	133.17808407
30.10000000	9261.95502447	9719.23214967	10399.72247450	10399.93193496	13172.60706000	14408.44900875	15165.65582016	207.13603826	-59.08735542	133.81849993
30.11000000	9267.80030700	9734.46124821	10399.48850216	10399.59635804	13199.66398947	14371.75456366	15166.61151993	206.76400838	-59.54082649	134.45049094
30.12000000	9273.32934646	9749.62060714	10399.25850331	10399.31081758	13226.36641743	14332.68203138	15166.35907267	206.41518165	-59.98282376	135.05737457
30.13000000	9278.71106256	9764.30098400	10399.07626378	10399.10217570	13251.09243627	14294.38678234	15165.45527721	206.07815315	-60.40581994	135.62246831
30.14000000	9284.11437499	9778.09313632	10398.98556939	10398.99729452	13272.22013843	14260.02418697	15164.45693242	205.74151795	-60.80228776	136.12908964
30.15000000	9289.70674192	9790.59014900	10399.02984583	10399.02280613	13288.13872335	14232.72950647	15163.91735102	205.39391621	-61.16476448	136.56075995
30.16000000	9295.54254271	9801.56517654	10399.22465301	10399.18754204	13298.09674598	14214.08214418	15164.12012283	205.02747500	-61.49078065	136.91677662
30.17000000	9301.48448031	9811.09660387	10399.53831649	10399.47016068	13302.79942846	14203.02421636	15164.89163858	204.64023194	-61.78633077	137.22317847
30.18000000	9307.37669085	9819.29238217	10399.93458645	10399.84639773	13303.09309340	14198.24237771	15166.01400230	204.23079721	-62.05822922	137.50859461
30.19000000	9313.06331049	9826.26046260	10400.37721307	10400.29198886	13299.82406344	14198.42328288	15167.26931802	203.79778097	-62.31329036	137.80165417
30.20000000	9318.38847536	9832.10879636	10400.82994653	10400.78266977	13293.83866120	14202.25358657	15168.43968975	203.33979339	-62.55832859	138.13098626
30.21000000	9323.19632161	9836.94533460	10401.25653701	10401.29417613	13285.98320932	14208.41994345	15169.30722153	202.85544465	-62.80015825	138.52522000
30.22000000	9327.33098538	9840.87802851	10401.62073468	10401.80224363	13277.10403042	14215.60900820	15169.65401737	202.34334490	-63.04559374	139.01298453
30.23000000	9330.63660281	9844.01482926	10401.88628973	10402.28260794	13268.04744714	14222.50743550	15169.26218130	201.80210431	-63.30144942	139.62290895
30.24000000	9332.95731005	9846.46368803	10402.01695235	10402.71100476	13259.65978210	14227.80188003	15167.91381734	201.23033305	-63.57453966	140.38362239
30.25000000	9334.13770580	9848.33255251	10401.97664679	10403.06317955	13252.78592865	14230.18272916	15165.39214504	200.62665704	-63.87166025	141.32357980
30.26000000	9334.12044915	9849.72863445	10401.76620570	10403.31695083	13247.96777469	14229.13170231	15161.71687474	199.99304007	-64.19566547	142.43431400
30.27000000	9333.06698495	9850.75750356	10401.46880911	10403.45476243	13245.07116287	14225.89608518	15157.43535893	199.33889320	-64.54061564	143.62497957
30.28000000	9331.16836119	9851.52450737	10401.17877918	10403.45968401	13243.87046250	14221.96205617	15153.16634359	198.67463516	-64.89938118	144.79358477
30.29000000	9328.61562584	9852.13499342	10400.99043810	10403.31478524	13244.14004290	14218.81579365	15149.52857467	198.01068468	-65.26483250	145.83813790
30.30000000	9325.59982689	9852.69430925	10400.99810805	10403.00313577	13245.65427336	14217.94347603	15147.14079811	197.35746048	-65.62984005	146.65664723
30.31000000	9322.31201233	9853.30780238	10401.29611119	10402.50780525	13248.18752321	14220.83128169	15146.62175989	196.72538129	-65.98727423	147.14712102
30.32000000	9318.94323014	9854.08082035	10401.97876971	10401.81186336	13251.51416175	14228.96538902	15148.59020595	196.12486584	-66.33000548	147.20756757
30.33000000	9315.68446853	9855.11867962	10403.14038575	10400.89840583	13255.40856960	14243.83129421	15153.66462692	195.56632736	-66.65090686	146.73606627
30.34000000	9312.64740300	9856.48545577	10404.84867720	10399.78514290	13259.66014082	14266.00919213	15162.12469016	195.05290315	-66.94635936	145.72508881
30.35000000	9309.70804202	9858.12268272	10407.09237051	10398.59263705	13264.10287983	14293.38929798	15173.24329573	194.56611100	-67.22316727	144.44758065
30.36000000	9306.69882288	9859.94923835	10409.84558782	10397.46046657	13268.57903880	14323.36449117	15186.10720795	194.08347157	-67.49006199	143.22834257
30.37000000	9303.45218288	9861.88400051	10413.08245125	10396.52820973	13272.93086992	14353.32765107	15199.80319112	193.58250554	-67.75577493	142.39217530
30.38000000	9299.80055930	9863.84584708	10416.77708295	10395.93544483	13277.00062539	14380.67165707	15213.41800955	193.04073358	-68.02903749	142.26387963
